<?xml version="1.0" encoding="utf-8"?>
<!-- Generator: Adobe Illustrator 14.0.0, SVG Export Plug-In . SVG Version: 6.00 Build 43363)  -->
<!DOCTYPE svg PUBLIC "-//W3C//DTD SVG 1.1//EN" "http://www.w3.org/Graphics/SVG/1.1/DTD/svg11.dtd">
<svg version="1.1" xmlns="http://www.w3.org/2000/svg" xmlns:xlink="http://www.w3.org/1999/xlink" x="0px" y="0px" width="80px"
	 height="80px" viewBox="0 0 80 80" enable-background="new 0 0 80 80" xml:space="preserve">
<g id="Calque_1">
	<g>
		<circle fill="#F2F2F2" cx="39.954" cy="12.498" r="5.364"/>
		<circle fill="#E1E1E1" cx="25.254" cy="16.778" r="5.364"/>
		<circle fill="#CFCFCF" cx="14.875" cy="28.798" r="5.364"/>
		<circle fill="#BEBEBE" cx="12.773" cy="43.887" r="5.364"/>
		<circle fill="#ADADAD" cx="19.171" cy="57.962" r="5.364"/>
		<circle fill="#9B9B9B" cx="32.454" cy="66.452" r="5.364"/>
		<circle fill="#8A8A8A" cx="47.651" cy="66.421" r="5.364"/>
		<circle fill="#787878" cx="60.86" cy="57.924" r="5.364"/>
		<circle fill="#676767" cx="67.244" cy="43.771" r="5.364"/>
		<circle fill="#565656" cx="65.084" cy="28.708" r="5.364"/>
		<circle fill="#444444" cx="54.684" cy="16.74" r="5.364"/>
		<circle fill="#333333" cx="39.954" cy="12.498" r="5.364"/>
	</g>
</g>
<g id="Calque_2" display="none">
	<circle display="inline" fill="none" cx="40" cy="40" r="20"/>
	<text transform="matrix(0.9979 -0.0655 0.0655 0.9979 35.1519 20.2749)" display="inline"><tspan x="0" y="0" font-family="'MyriadPro-Regular'" font-size="14">E</tspan><tspan x="6.205" y="-0.202" font-family="'MyriadPro-Regular'" font-size="14" rotate="18.458">n</tspan><tspan x="12.915" y="1.89" font-family="'MyriadPro-Regular'" font-size="14" rotate="38.548">d</tspan><tspan x="18.583" y="6.266" font-family="'MyriadPro-Regular'" font-size="14" rotate="58.43">o</tspan><tspan x="22.276" y="12.161" font-family="'MyriadPro-Regular'" font-size="14" rotate="77.121">S</tspan><tspan x="23.558" y="18.387" font-family="'MyriadPro-Regular'" font-size="14" rotate="90.401">i</tspan><tspan x="23.734" y="21.218" font-family="'MyriadPro-Regular'" font-size="14" rotate="101.926">z</tspan><tspan x="22.795" y="26.489" font-family="'MyriadPro-Regular'" font-size="14" rotate="118.629">e</tspan></text>
</g>
</svg>
